<svg xmlns="http://www.w3.org/2000/svg" width="16" height="16" viewBox="0 0 16 16"><path d="M14.154,16H1.846A1.848,1.848,0,0,1,0,14.153V1.846A1.848,1.848,0,0,1,1.846,0H14.154A1.848,1.848,0,0,1,16,1.846V14.153A1.848,1.848,0,0,1,14.154,16ZM1.846,6.769v6.769a.616.616,0,0,0,.616.616H13.538a.617.617,0,0,0,.616-.616V6.769H12.761a4.923,4.923,0,1,1-9.522,0ZM8,4.923A3.077,3.077,0,1,0,11.077,8,3.081,3.081,0,0,0,8,4.923Zm3.717-3.077a.641.641,0,0,0-.64.64v1.92a.641.641,0,0,0,.64.641h1.92a.642.642,0,0,0,.641-.641V2.486a.641.641,0,0,0-.641-.64Z" transform="translate(0 0)" fill="rgba(255,255,255,1)"/></svg>