<svg xmlns="http://www.w3.org/2000/svg" width="12.386" height="16" viewBox="0 0 12.386 16"><path d="M6.568,0C2.2,0,0,3.131,0,5.741A3.54,3.54,0,0,0,1.882,9.252a.316.316,0,0,0,.46-.23c.042-.161.143-.568.188-.738A.446.446,0,0,0,2.4,7.772a2.65,2.65,0,0,1-.607-1.8,4.353,4.353,0,0,1,4.525-4.4c2.468,0,3.824,1.508,3.824,3.522,0,2.65-1.173,4.886-2.914,4.886a1.422,1.422,0,0,1-1.451-1.77,19.713,19.713,0,0,0,.811-3.261,1.231,1.231,0,0,0-1.24-1.38c-.983,0-1.772,1.017-1.772,2.379A3.535,3.535,0,0,0,3.868,7.4L2.686,12.406A10.309,10.309,0,0,0,2.659,15.9a.122.122,0,0,0,.218.053,9.807,9.807,0,0,0,1.659-3.007c.113-.409.647-2.526.647-2.526a2.634,2.634,0,0,0,2.245,1.146c2.954,0,4.959-2.693,4.959-6.3A5.493,5.493,0,0,0,6.568,0Z" fill="rgba(255,255,255,1)"/></svg>