<svg xmlns="http://www.w3.org/2000/svg" width="16" height="13.003" viewBox="0 0 16 13.003"><path d="M16,1.539a6.558,6.558,0,0,1-1.885.517A3.292,3.292,0,0,0,15.558.24a6.572,6.572,0,0,1-2.085.8A3.285,3.285,0,0,0,7.88,4.031,9.319,9.319,0,0,1,1.114.6,3.286,3.286,0,0,0,2.13,4.983,3.268,3.268,0,0,1,.643,4.573a3.286,3.286,0,0,0,2.633,3.26,3.289,3.289,0,0,1-1.482.056,3.286,3.286,0,0,0,3.066,2.28A6.6,6.6,0,0,1,0,11.528,9.291,9.291,0,0,0,5.032,13a9.284,9.284,0,0,0,9.33-9.764A6.669,6.669,0,0,0,16,1.539Z" fill="rgba(255,255,255,1)"/></svg>